HIERARCHY
ROOT Hips
{
	OFFSET	0.00	0.00	0.00
	CHANNELS 6 Xposition Yposition Zposition Zrotation Xrotation Yrotation
	JOINT LeftUpLeg
	{
		OFFSET	 0.126116	-0.014019	-0.065224
		CHANNELS 3 Zrotation Xrotation Yrotation
		JOINT LeftLeg
		{
			OFFSET	 0.000000	 0.000000	 0.569914
			CHANNELS 3 Zrotation Xrotation Yrotation
			JOINT LeftFoot
			{
				OFFSET	 0.000000	 0.000000	 0.544423
				CHANNELS 3 Zrotation Xrotation Yrotation
				JOINT LeftToeBase
				{
					OFFSET	 0.000000	 0.000000	 0.207117
					CHANNELS 3 Zrotation Xrotation Yrotation
					End Site
					{
						OFFSET	 0.000000	 0.000000	 0.207117
					}
				}
			}
		}
	}
	JOINT RightUpLeg
	{
		OFFSET	-0.124023	-0.008373	-0.065224
		CHANNELS 3 Zrotation Xrotation Yrotation
		JOINT RightLeg
		{
			OFFSET	 0.000000	 0.000000	 0.570047
			CHANNELS 3 Zrotation Xrotation Yrotation
			JOINT RightFoot
			{
				OFFSET	 0.000000	 0.000000	 0.544354
				CHANNELS 3 Zrotation Xrotation Yrotation
				JOINT RightToeBase
				{
					OFFSET	 0.000000	 0.000000	 0.207540
					CHANNELS 3 Zrotation Xrotation Yrotation
					End Site
					{
						OFFSET	 0.000000	 0.000000	 0.207540
					}
				}
			}
		}
	}
	JOINT Spine
	{
		OFFSET	 0.000184	-0.007763	 0.117403
		CHANNELS 3 Zrotation Xrotation Yrotation
		JOINT Spine1
		{
			OFFSET	 0.000000	 0.000000	 0.137269
			CHANNELS 3 Zrotation Xrotation Yrotation
			JOINT Spine2
			{
				OFFSET	 0.000000	 0.000000	 0.156879
				CHANNELS 3 Zrotation Xrotation Yrotation
				JOINT LeftShoulder
				{
					OFFSET	 0.080501	-0.002496	 0.160144
					CHANNELS 3 Zrotation Xrotation Yrotation
					JOINT LeftArm
					{
						OFFSET	 0.000000	 0.000000	 0.164363
						CHANNELS 3 Zrotation Xrotation Yrotation
						JOINT LeftForeArm
						{
							OFFSET	 0.000000	 0.000000	 0.364576
							CHANNELS 3 Zrotation Xrotation Yrotation
							JOINT LeftHand
							{
								OFFSET	 0.000000	 0.000000	 0.360812
								CHANNELS 3 Zrotation Xrotation Yrotation
								JOINT LeftHandIndex1
								{
									OFFSET	 0.000000	 0.000000	 0.086006
									CHANNELS 3 Zrotation Xrotation Yrotation
									JOINT LeftHandIndex2
									{
										OFFSET	 0.000000	 0.000000	 0.047237
										CHANNELS 3 Zrotation Xrotation Yrotation
										JOINT LeftHandIndex3
										{
											OFFSET	-0.004284	-0.000551	 0.038165
											CHANNELS 3 Zrotation Xrotation Yrotation
											End Site
											{
												OFFSET	-0.004284	-0.000551	 0.038165
											}
										}
									}
								}
							}
						}
					}
				}
				JOINT Neck
				{
					OFFSET	 0.000000	 0.000000	 0.176489
					CHANNELS 3 Zrotation Xrotation Yrotation
					JOINT Head
					{
						OFFSET	 0.000000	-0.001747	 0.077940
						CHANNELS 3 Zrotation Xrotation Yrotation
						End Site
						{
							OFFSET	 0.000000	-0.001747	 0.077940
						}
					}
				}
				JOINT RightShoulder
				{
					OFFSET	-0.080363	 0.000306	 0.159706
					CHANNELS 3 Zrotation Xrotation Yrotation
					JOINT RightArm
					{
						OFFSET	 0.000000	 0.000000	 0.164196
						CHANNELS 3 Zrotation Xrotation Yrotation
						JOINT RightForeArm
						{
							OFFSET	 0.000000	 0.000000	 0.365611
							CHANNELS 3 Zrotation Xrotation Yrotation
							JOINT RightHand
							{
								OFFSET	 0.000000	 0.000000	 0.360648
								CHANNELS 3 Zrotation Xrotation Yrotation
								JOINT RightHandIndex1
								{
									OFFSET	 0.000000	 0.000000	 0.069977
									CHANNELS 3 Zrotation Xrotation Yrotation
									JOINT RightHandIndex2
									{
										OFFSET	 0.000000	 0.000000	 0.052305
										CHANNELS 3 Zrotation Xrotation Yrotation
										JOINT RightHandIndex3
										{
											OFFSET	 0.009002	-0.000782	 0.042196
											CHANNELS 3 Zrotation Xrotation Yrotation
											End Site
											{
												OFFSET	 0.009002	-0.000782	 0.042196
											}
										}
									}
								}
							}
						}
					}
				}
			}
		}
	}
}
MOTION
Frames:    7
Frame Time: 0.03333334
-0.451079	-0.033419	 1.272269	-179.862300	-4.082808	 2.479800	 12.247250	-0.696325	 176.076800	-8.502049	-17.397320	-2.730702	 7.632306	 75.225780	-17.357110	-2.385833	 28.452760	 0.000004	 25.836590	 0.387886	 174.521100	 2.902219	-12.006670	 0.287040	 1.456194	 67.914790	 13.793350	 2.384659	 28.388700	-0.000001	-2.611085	 9.542150	-3.272308	-0.632646	 1.507374	-4.247581	 3.437603	-3.797660	 7.773095	-91.776160	 78.527400	 180.000000	-58.161010	 2.832883	 4.533266	 0.248593	-2.212422	-44.690390	-0.787226	-23.757360	-2.090396	-4.130319	 21.525730	 0.991547	-5.167930	 0.731704	 3.519349	-1.378229	 35.397820	-2.634230	-2.939848	 0.887726	 1.863038	-13.743330	-27.884900	-14.274570	 89.782110	 78.203830	 180.000000	 14.506100	-6.823120	-9.726345	-14.406900	-8.817566	 46.227310	 8.952134	 53.215420	 106.455000	 5.716227	 19.173190	-3.685159	 5.027444	 0.246877	-9.377972	-2.350882	 35.473990	 5.254307
-0.451540	-0.033928	 1.271118	-179.579100	-4.178792	 2.823621	 13.258370	-2.739745	 175.622200	-9.675042	-21.959880	-3.863390	 9.263141	 77.878250	-18.251000	-2.385833	 28.452760	 0.000004	 25.143750	-1.671074	 174.772000	 3.521427	-16.704030	 0.574720	-0.343541	 69.923580	 15.172710	 2.384659	 28.388700	-0.000001	-3.035787	 9.606962	-3.482246	-0.912454	 2.388400	-4.951316	 3.386375	-4.837901	 8.407332	-91.776180	 78.527400	 180.000000	-61.374080	 7.873097	 17.344980	-1.070137	-2.614023	-70.679700	-1.144313	-23.358690	-2.245957	-4.130319	 21.525730	 0.991547	-5.167930	 0.731704	 3.519349	-1.378229	 35.397820	-2.634230	-3.163857	 1.212754	 2.234002	-14.358270	-28.920510	-15.843050	 89.782210	 78.203890	 179.999900	 16.517430	-3.241064	-17.712690	-10.147280	-11.555450	 70.333370	 24.300850	 53.265050	 87.958050	 5.716227	 19.173190	-3.685159	 5.027444	 0.246877	-9.377972	-2.350882	 35.473990	 5.254307
-0.452533	-0.035398	 1.267351	-178.967600	-3.887814	 2.679752	 10.967060	-6.444583	 176.384600	-10.486610	-31.039770	-5.749032	 7.976557	 83.696240	-17.000460	-2.385833	 28.452760	 0.000004	 23.908140	-5.989759	 176.787600	 3.901346	-26.728910	 1.070357	 4.484856	 75.680320	 9.632984	 2.384659	 28.388700	-0.000001	-4.770435	 9.397137	-3.054818	-1.911564	 3.058952	-5.662407	 3.480693	-4.831251	 8.852703	-91.776210	 78.527420	-180.000000	-49.126730	 24.076110	 33.048880	-3.238910	-2.689420	-114.986700	-0.969433	-23.860610	-2.248488	-4.130319	 21.525730	 0.991547	-5.167930	 0.731704	 3.519349	-1.378229	 35.397820	-2.634230	-3.092288	 0.897318	 2.142826	-14.183240	-28.231770	-15.792110	 89.782220	 78.203890	 179.999900	 12.411980	 14.433620	-20.281840	-2.266239	-10.353900	 110.213400	 39.089320	 30.502130	 41.276670	 5.716227	 19.173190	-3.685159	 5.027444	 0.246877	-9.377972	-2.350882	 35.473990	 5.254307
-0.455567	-0.038565	 1.259732	-177.619200	-3.589399	 2.356862	 7.471680	-10.803970	 177.948800	-12.634550	-43.448030	-9.159929	-170.902500	 87.384240	 161.838000	-2.385833	 28.452760	 0.000004	 22.230830	-10.576640	-179.075400	 4.922131	-38.922920	 2.137320	 24.976760	 82.004090	-12.361590	 2.384659	 28.388700	-0.000001	-8.094162	 8.868037	-2.679737	-3.795225	 5.099422	-5.683009	 3.356555	-5.162982	 8.898683	-91.776170	 78.527380	 180.000000	 42.627050	 50.502810	-62.338180	-2.932636	-2.806541	-108.644300	-1.010465	-24.266420	-2.269757	-4.130319	 21.525730	 0.991547	-5.167930	 0.731704	 3.519349	-1.378229	 35.397820	-2.634230	-2.962315	-0.689325	-0.120993	-13.408170	-26.115420	-10.598600	 89.782190	 78.203900	 179.999900	-51.335160	 44.794570	 66.395060	-5.494803	-10.602600	 93.027350	-4.218919	-4.095308	 10.960600	 5.716227	 19.173190	-3.685159	 5.027444	 0.246877	-9.377972	-2.350882	 35.473990	 5.254307
-0.463364	-0.041539	 1.256861	-176.523100	-3.698048	 2.125727	 4.115032	-11.531780	 179.399600	-12.888050	-46.681310	-9.870130	-169.895800	 85.037930	 160.513500	-2.385833	 28.452760	 0.000004	 19.985120	-11.501670	-176.876600	 5.697196	-42.220940	 2.807989	 31.069140	 81.569930	-19.401230	 2.384659	 28.388700	-0.000001	-9.466811	 8.500558	-2.835004	-4.321756	 6.641482	-4.254459	 3.192575	-6.216640	 8.456288	-91.776180	 78.527350	-180.000000	 54.987150	 44.158290	-90.232680	-1.456102	-2.817504	-79.341160	-1.167845	-24.419180	-2.305182	-4.130319	 21.525730	 0.991547	-5.167930	 0.731704	 3.519349	-1.378229	 35.397820	-2.634230	-3.929386	 1.994338	 2.205850	-14.768170	-28.277490	-15.953120	 89.782140	 78.203830	 180.000000	-66.933990	 39.798330	 98.912250	-11.485270	-8.922447	 58.482280	-9.065813	-17.257330	 19.467980	 5.716227	 19.173190	-3.685159	 5.027444	 0.246877	-9.377972	-2.350882	 35.473990	 5.254307
-0.475198	-0.044278	 1.257061	-174.972600	-3.791089	 2.462152	 0.559161	-10.948750	-179.820100	-11.694760	-45.127890	-8.751996	-162.211300	 86.533500	 152.516700	-2.385833	 28.452760	 0.000004	 17.295200	-11.805290	-176.484300	 6.666561	-42.301460	 3.467103	 19.207610	 79.214460	-8.031899	 2.384659	 28.388700	-0.000001	-9.897747	 8.698038	-2.800258	-3.380425	 5.482602	-3.394127	 2.925684	-5.010804	 7.888988	-91.776120	 78.527420	 180.000000	 50.047120	 46.575770	-78.295060	-2.118115	-2.950833	-92.560330	-1.136488	-25.066600	-2.330585	-4.130319	 21.525730	 0.991547	-5.167930	 0.731704	 3.519349	-1.378229	 35.397820	-2.634230	-4.073092	 1.598375	 1.926804	-14.531160	-26.965430	-14.793000	 89.782060	 78.203900	-180.000000	-59.244990	 43.304000	 83.190990	-8.602127	-10.107710	 75.761880	-6.922582	-13.957500	 13.260890	 5.716227	 19.173190	-3.685159	 5.027444	 0.246877	-9.377972	-2.350882	 35.473990	 5.254307
-0.484189	-0.044821	 1.256140	-173.665200	-3.614340	 1.819056	-2.531410	-10.251270	-177.762800	-10.470200	-43.486500	-7.641387	-158.471200	 88.051270	 148.242900	-2.385833	 28.452760	 0.000004	 17.825810	-14.194550	-174.292300	 6.570302	-46.892040	 3.689582	 25.142970	 79.167400	-14.184250	 2.384659	 28.388700	-0.000001	-9.600164	 8.959508	-1.813179	-1.828839	 2.414854	-1.724231	 2.441312	-2.689364	 6.575481	-91.776250	 78.527360	-179.999900	 50.853210	 45.962030	-79.655950	-2.108451	-3.086012	-92.269050	-1.066041	-25.737830	-2.367763	-4.130319	 21.525730	 0.991547	-5.167930	 0.731704	 3.519349	-1.378229	 35.397820	-2.634230	-4.056130	-0.172758	 0.654869	-13.950500	-24.541470	-11.357260	 89.782110	 78.203890	 180.000000	-58.863080	 43.830850	 82.577090	-8.501266	-10.247920	 76.482540	-6.183211	-17.847520	 10.701780	 5.716227	 19.173190	-3.685159	 5.027444	 0.246877	-9.377972	-2.350882	 35.473990	 5.254307
